<?xml version="1.0" standalone="no"?><!DOCTYPE svg PUBLIC "-//W3C//DTD SVG 1.1//EN" "http://www.w3.org/Graphics/SVG/1.1/DTD/svg11.dtd"><svg t="1675214216594" class="icon" viewBox="0 0 1024 1024" version="1.1" xmlns="http://www.w3.org/2000/svg" p-id="12760" xmlns:xlink="http://www.w3.org/1999/xlink" width="200" height="200"><path d="M512 768h64a21.333333 21.333333 0 0 1 21.333333 21.333333v21.333334h277.333334a21.333333 21.333333 0 1 1 0 42.666666H597.333333v21.333334a21.333333 21.333333 0 0 1-21.333333 21.333333h-170.666667a21.333333 21.333333 0 0 1-21.333333-21.333333V853.333333H106.666667a21.333333 21.333333 0 1 1 0-42.666666H384v-21.333334a21.333333 21.333333 0 0 1 21.333333-21.333333H469.333333v-128H149.333333A64 64 0 0 1 85.333333 576v-128c0-16.384 6.186667-31.36 16.298667-42.666667A63.744 63.744 0 0 1 85.333333 362.666667v-128A64 64 0 0 1 149.333333 170.666667h682.666667A64 64 0 0 1 896 234.666667v128c0 16.384-6.186667 31.36-16.298667 42.666666 10.112 11.306667 16.298667 26.282667 16.298667 42.666667v128a64 64 0 0 1-64 64H512v128zM149.333333 384h682.666667a21.333333 21.333333 0 0 0 21.333333-21.333333v-128a21.333333 21.333333 0 0 0-21.333333-21.333334h-682.666667a21.333333 21.333333 0 0 0-21.333333 21.333334v128a21.333333 21.333333 0 0 0 21.333333 21.333333z m0 42.666667a21.333333 21.333333 0 0 0-21.333333 21.333333v128a21.333333 21.333333 0 0 0 21.333333 21.333333h682.666667a21.333333 21.333333 0 0 0 21.333333-21.333333v-128a21.333333 21.333333 0 0 0-21.333333-21.333333h-682.666667z m640 85.333333a42.666667 42.666667 0 1 1-85.333333 0 42.666667 42.666667 0 0 1 85.333333 0z m0-213.333333a42.666667 42.666667 0 1 1-85.333333 0 42.666667 42.666667 0 0 1 85.333333 0z m-128 213.333333a42.666667 42.666667 0 1 1-85.333333 0 42.666667 42.666667 0 0 1 85.333333 0z m0-213.333333a42.666667 42.666667 0 1 1-85.333333 0 42.666667 42.666667 0 0 1 85.333333 0zM426.666667 853.333333h128v-42.666666h-128v42.666666z" fill="#000000" p-id="12761"></path></svg>