<?xml version="1.0" standalone="no"?><!DOCTYPE svg PUBLIC "-//W3C//DTD SVG 1.1//EN" "http://www.w3.org/Graphics/SVG/1.1/DTD/svg11.dtd"><svg t="1672988684721" class="icon" viewBox="0 0 1024 1024" version="1.1" xmlns="http://www.w3.org/2000/svg" p-id="4108" xmlns:xlink="http://www.w3.org/1999/xlink" width="200" height="200"><path d="M544 832H64V384h704v192c0 17.066667 14.933333 32 32 32S832 593.066667 832 576V160c0-17.066667-14.933333-32-32-32h-768C14.933333 128 0 142.933333 0 160v704c0 17.066667 14.933333 32 32 32h512c17.066667 0 32-14.933333 32-32s-14.933333-32-32-32zM64 192h704v128H64V192z" fill="#212121" p-id="4109"></path><path d="M704 480c0-17.066667-14.933333-32-32-32h-512c-17.066667 0-32 14.933333-32 32S142.933333 512 160 512h512c17.066667 0 32-14.933333 32-32zM160 576c-17.066667 0-32 14.933333-32 32S142.933333 640 160 640h256c17.066667 0 32-14.933333 32-32s-14.933333-32-32-32h-256zM128 224h64v64H128zM256 224h64v64h-64zM384 224h64v64h-64zM1015.466667 535.466667c-12.8-12.8-32-12.8-44.8 0L699.733333 804.266667l-96-96c-12.8-12.8-32-12.8-44.8 0-12.8 12.8-12.8 32 0 44.8l119.466667 117.333333c6.4 6.4 14.933333 8.533333 23.466667 8.533333s17.066667-2.133333 23.466666-8.533333l292.266667-290.133333c8.533333-10.666667 8.533333-32-2.133333-44.8z" fill="#212121" p-id="4110"></path></svg>