<?xml version="1.0" standalone="no"?><!DOCTYPE svg PUBLIC "-//W3C//DTD SVG 1.1//EN" "http://www.w3.org/Graphics/SVG/1.1/DTD/svg11.dtd">
<svg t="1676339009830" class="icon" viewBox="0 0 1024 1024" version="1.1" xmlns="http://www.w3.org/2000/svg" p-id="2913"
     width="200" height="200"><path d="M897.024 126.976v770.048H126.976V126.976h770.048m65.536-65.536H61.44v901.12h901.12V61.44z" p-id="2914"></path><path d="M285.696 321.3312H342.016v388.3008h-56.1152V321.3312z m181.8624 167.5264H618.496c-21.7088-20.2752-45.2608-41.1648-71.0656-62.6688l34.816-33.9968h-43.8272c-16.1792 26.4192-33.9968 52.6336-54.0672 78.4384-14.7456-12.288-32.1536-25.6-52.224-39.7312v325.0176h-62.0544V274.432H432.128v149.2992c39.936-47.104 73.1136-99.1232 99.5328-155.648l63.0784 14.7456c-6.9632 16.9984-14.7456 33.5872-23.1424 50.176h182.8864v59.1872h-157.696c23.7568 16.9984 48.3328 35.84 73.9328 56.7296l-36.6592 39.936h106.7008v264.192h-61.0304v-23.1424h-150.7328v23.1424h-61.0304v-264.192z m61.2352 183.9104h47.7184v-126.5664h-47.7184v126.5664z m150.7328-126.7712h-47.7184v126.5664h47.7184v-126.5664z" p-id="2915"></path></svg>